<?xml version="1.0" encoding="UTF-8"?>
<!DOCTYPE svg PUBLIC "-//W3C//DTD SVG 1.1//EN" "http://www.w3.org/Graphics/SVG/1.1/DTD/svg11.dtd">
<!-- Creator: CorelDRAW 2017 -->
<svg xmlns="http://www.w3.org/2000/svg" xml:space="preserve" width="352.778mm" height="352.778mm" version="1.1" style="shape-rendering:geometricPrecision; text-rendering:geometricPrecision; image-rendering:optimizeQuality; fill-rule:evenodd; clip-rule:evenodd"
viewBox="0 0 35278 35278"
 xmlns:xlink="http://www.w3.org/1999/xlink">
 <defs>
  <style type="text/css">
   <![CDATA[
    .fil0 {fill:#E94D3D;fill-rule:nonzero}
    .fil1 {fill:#777473;fill-rule:nonzero}
   ]]>
  </style>
 </defs>
 <g id="Слой_x0020_1">
  <metadata id="CorelCorpID_0Corel-Layer"/>
  <g id="_1611867890624">
   <g>
    <path class="fil0" d="M21617 25170c-181,0 -354,-93 -451,-256l-3978 -6634 -7432 2021c-237,65 -487,-44 -602,-261l-8688 -16343c-81,-152 -82,-334 -3,-487 79,-153 227,-258 398,-281l7383 -993c208,-28 413,71 521,251l8917 14870 10356 -2816 -3459 -4875c-101,-143 -125,-326 -63,-490 62,-164 201,-286 371,-326l4846 -1144c198,-47 404,25 531,183l4193 5235c111,138 144,323 89,492 -55,169 -191,298 -362,345l-4417 1201 3851 5428c96,135 122,307 72,464 -50,157 -171,282 -327,337l-11571 4052c-57,20 -116,30 -174,30zm-3375 -7177l0 0 3605 6013 10507 -3679 -3670 -5173 -10442 2840zm-16493 -14123l0 0 8136 15305 6741 -1833 -8586 -14319 -6291 847zm24138 5522l0 0 3230 4553 4016 -1092 -3484 -4350 -3762 889z"/>
   </g>
   <g>
    <polygon class="fil1" points="7935,26679 8375,26679 8375,31415 7935,31415 "/>
    <path class="fil1" d="M12693 27998l0 3417 -433 0 0 -587c-184,224 -391,393 -620,506 -229,113 -480,170 -752,170 -484,0 -897,-175 -1239,-526 -342,-351 -514,-777 -514,-1280 0,-492 173,-913 518,-1263 345,-350 761,-525 1247,-525 281,0 534,60 762,179 227,119 427,298 598,537l0 -628 433 0zm-1757 336l0 0c-245,0 -471,60 -678,180 -207,120 -372,289 -494,507 -122,218 -184,448 -184,690 0,241 62,471 185,690 123,220 289,391 497,513 208,122 431,184 670,184 240,0 469,-61 684,-182 215,-121 381,-286 497,-493 116,-207 174,-440 174,-700 0,-395 -130,-726 -391,-991 -260,-266 -581,-398 -962,-398z"/>
    <path class="fil1" d="M13516 27998l449 0 0 499c134,-197 275,-344 424,-441 149,-97 304,-146 465,-146 121,0 251,39 389,116l-229 371c-92,-40 -170,-60 -232,-60 -147,0 -288,60 -424,181 -136,120 -240,307 -311,561 -54,195 -82,588 -82,1181l0 1156 -449 0 0 -3417z"/>
    <path class="fil1" d="M19022 27998l0 3417 -433 0 0 -587c-184,224 -391,393 -620,506 -229,113 -480,170 -752,170 -484,0 -897,-175 -1239,-526 -342,-351 -514,-777 -514,-1280 0,-492 173,-913 518,-1263 345,-350 761,-525 1247,-525 281,0 534,60 762,179 227,119 427,298 598,537l0 -628 433 0zm-1757 336l0 0c-245,0 -471,60 -678,180 -207,120 -372,289 -494,507 -122,218 -184,448 -184,690 0,241 62,471 185,690 123,220 289,391 497,513 208,122 431,184 670,184 240,0 469,-61 684,-182 215,-121 381,-286 497,-493 116,-207 174,-440 174,-700 0,-395 -130,-726 -391,-991 -260,-266 -581,-398 -962,-398z"/>
    <polygon class="fil1" points="19688,27998 20156,27998 21303,30489 22436,27998 22907,27998 21343,31415 21262,31415 "/>
    <path class="fil1" d="M26453 30281l371 195c-122,239 -262,431 -421,578 -159,147 -338,258 -538,335 -199,76 -425,115 -676,115 -558,0 -993,-183 -1308,-548 -314,-365 -472,-778 -472,-1239 0,-433 133,-820 399,-1159 337,-431 789,-647 1355,-647 583,0 1048,221 1396,663 247,312 373,702 377,1168l-3075 0c8,397 135,722 380,976 245,254 548,381 909,381 174,0 343,-30 508,-91 164,-60 304,-141 420,-241 115,-100 240,-262 374,-485zm0 -920l0 0c-59,-234 -144,-422 -256,-562 -112,-140 -260,-253 -445,-339 -185,-86 -378,-129 -582,-129 -335,0 -624,108 -865,324 -176,157 -309,393 -399,707l2547 0z"/>
    <polygon class="fil1" points="27691,26679 28130,26679 28130,31415 27691,31415 "/>
   </g>
  </g>
 </g>
</svg>
