<?xml version="1.0" encoding="UTF-8"?>
<!DOCTYPE svg PUBLIC "-//W3C//DTD SVG 1.1//EN" "http://www.w3.org/Graphics/SVG/1.1/DTD/svg11.dtd">
<!-- Creator: CorelDRAW 2017 -->
<svg xmlns="http://www.w3.org/2000/svg" xml:space="preserve" width="352.778mm" height="215.9mm" version="1.1" style="shape-rendering:geometricPrecision; text-rendering:geometricPrecision; image-rendering:optimizeQuality; fill-rule:evenodd; clip-rule:evenodd"
viewBox="0 0 35278 21590"
 xmlns:xlink="http://www.w3.org/1999/xlink">
 <defs>
  <style type="text/css">
   <![CDATA[
    .str3 {stroke:#FEFEFE;stroke-width:100}
    .str2 {stroke:#2B2A29;stroke-width:100}
    .str1 {stroke:#2B2A29;stroke-width:7.62}
    .str0 {stroke:#CCCCCC;stroke-width:7.62}
    .fil8 {fill:none}
    .fil4 {fill:#FEFEFE}
    .fil1 {fill:#2B2A29}
    .fil2 {fill:#6978AB}
    .fil5 {fill:#8093D0}
    .fil6 {fill:#B9C5EA}
    .fil0 {fill:#CCCCCC}
    .fil7 {fill:#EBEFFF}
    .fil3 {fill:url(#id0)}
   ]]>
  </style>
  <linearGradient id="id0" gradientUnits="userSpaceOnUse" x1="10345" y1="4950" x2="24652" y2="16262">
   <stop offset="0" style="stop-opacity:1; stop-color:#8A9FE0"/>
   <stop offset="0.588235" style="stop-opacity:1; stop-color:#7182B8"/>
   <stop offset="1" style="stop-opacity:1; stop-color:#576490"/>
  </linearGradient>
 </defs>
 <g id="Слой_x0020_1">
  <metadata id="CorelCorpID_0Corel-Layer"/>
  <path class="fil0 str0" d="M16066 16139c92,1061 83,2789 -55,3824 -70,525 -221,634 -536,867 -1016,754 -4416,932 -4837,-666 -158,-5 -28,-523 -180,-507 -382,38 -1116,-315 -1467,-895 5,-1748 202,-8061 -2925,-6364 -727,395 -1096,934 -1424,1743 -229,565 -268,1260 -291,2007 -26,872 194,1825 223,2870 13,469 89,588 -258,985 -560,641 -1539,98 -2069,-604 -242,-320 -326,-793 -355,-1180 -341,-4515 -81,-9217 1226,-13607 446,-1498 603,-1717 2028,-2057 1558,-371 3417,-442 4942,-292 1283,-416 4330,-2676 5642,-884 4061,-728 8122,-307 11695,2135 1708,152 3492,143 5200,91 248,-155 527,-321 781,-465 198,-112 363,-217 605,-255 282,-44 646,-57 726,290 71,306 98,695 72,1088 -25,380 -321,895 -782,928 -447,-117 -956,-178 -1403,-457 -1586,41 -2562,-41 -4147,0 256,272 240,453 430,816 1239,2372 74,6399 -948,7296 -113,1817 23,3657 36,5480 4,632 51,1229 -541,1645 -873,612 -2396,751 -3499,291 -338,-141 -567,-449 -814,-676 -235,-6 -436,58 -610,9 -352,-98 -643,-317 -842,-618 -123,-186 -183,-404 -286,-642 0,-854 -31,-1189 -31,-2043 -1769,239 -3538,341 -5306,-152z"/>
  <path class="fil1 str1" d="M15334 15651c92,1061 83,2789 -55,3824 -70,525 -221,634 -536,867 -1016,754 -4416,932 -4837,-666 -158,-5 -28,-523 -180,-507 -382,38 -1116,-315 -1467,-895 5,-1748 202,-8061 -2925,-6364 -727,395 -1096,934 -1424,1743 -229,565 -268,1260 -291,2007 -26,872 194,1825 223,2870 13,469 89,588 -258,985 -560,641 -1539,98 -2069,-604 -242,-320 -326,-793 -355,-1180 -341,-4515 -81,-9217 1226,-13607 446,-1498 603,-1717 2028,-2057 1558,-371 3417,-442 4942,-292 1283,-416 4330,-2676 5642,-884 4061,-728 8122,-307 11695,2135 1708,152 3492,143 5200,91 248,-155 527,-321 781,-465 198,-112 363,-217 605,-255 282,-44 646,-57 726,290 71,306 98,695 72,1088 -25,380 -321,895 -782,928 -447,-117 -956,-178 -1403,-457 -1586,41 -2562,-41 -4147,0 256,272 240,453 430,816 1239,2372 74,6399 -948,7296 -113,1817 23,3657 36,5480 4,632 51,1229 -541,1645 -873,612 -2396,751 -3499,291 -338,-141 -567,-449 -814,-676 -235,-6 -436,58 -610,9 -352,-98 -643,-317 -842,-618 -123,-186 -183,-404 -286,-642 0,-854 -31,-1189 -31,-2043 -1769,239 -3538,341 -5306,-152z"/>
  <path class="fil2 str1" d="M21052 15605c386,-41 773,-107 1159,-229 241,1010 187,2214 168,3355 -615,15 -1098,-254 -1388,-808 -66,-762 -36,-1555 61,-2318z"/>
  <path class="fil3" d="M3319 18944c-274,-1799 -554,-4977 727,-6486 114,-135 210,-280 331,-395 2030,-1915 3799,-269 4279,1849 102,1342 122,2684 61,4026 264,488 691,732 1281,732 185,388 139,673 347,927 901,1100 2235,1136 3298,845 425,-116 690,-382 1113,-552 285,-1830 244,-3436 -122,-4940 0,-224 -76,-371 -76,-595 122,41 259,46 381,168 -246,896 3122,1511 7045,427 42,-157 -33,-350 64,-406 136,-78 273,-95 409,-51 20,285 25,569 46,854 96,37 866,23 915,15 -280,254 -534,249 -732,259 66,0 -38,130 23,144 183,41 526,-22 663,39 -266,159 -568,69 -747,244 41,956 66,1972 107,2928 1359,808 2782,956 4041,-183 214,-2223 -29,-3901 -122,-5733 -142,-20 -285,-41 -427,-61 2230,-3002 2659,-6071 793,-8844 -20,-122 -102,-244 -122,-366 1626,-61 3299,107 4925,46 452,165 905,297 1357,381 479,-171 565,-1499 93,-1353 -473,146 -726,447 -1236,637 -1870,2 -3939,-77 -5810,-76 -2902,-2303 -6701,-3203 -10979,-1891 1283,2616 1130,5232 319,7848 -107,347 -1716,1370 -398,254 1334,-1131 500,-9005 -1141,-9017 -1737,-13 -3293,536 -5184,2074 -257,-271 -235,-161 -122,-549 -1383,-153 -2765,30 -4147,366 -773,81 -1301,427 -1586,1159 -1036,4297 -1865,8584 -1464,13540 111,529 150,1057 427,1586 733,806 1129,571 1372,152z"/>
  <path class="fil1 str1" d="M6237 3985c-445,-171 -853,-224 -1297,-180 -93,9 -132,14 -190,117 -32,58 -45,126 -24,187 36,106 45,101 137,118 118,22 240,-2 360,-29 303,-177 605,-139 907,-46 140,-5 150,-61 107,-168z"/>
  <path class="fil1 str1" d="M5239 5529c99,-197 274,-358 618,-382 23,-158 3,-250 -198,-245 -304,180 -550,362 -703,624 -120,206 -116,506 -95,734 16,175 112,316 245,428 267,225 656,117 918,-39 434,-257 870,-981 106,-1260 -241,-88 -621,16 -891,188 -15,9 -16,-16 1,-49z"/>
  <path class="fil4" d="M5585 6370c1,42 11,85 24,132 9,32 27,52 24,54 -73,43 -162,62 -240,26 -265,-121 -252,-499 -109,-704 149,-215 427,-367 642,-356 141,76 184,143 114,161 -59,15 -88,22 -127,42 -39,20 -90,53 -117,134 61,20 91,3 153,23 0,56 0,135 0,191 -58,-26 -124,-45 -195,-22 -118,37 -171,210 -168,320z"/>
  <path class="fil1 str1" d="M6094 11351c1574,-479 2327,-1712 2043,-3202 -193,-23 -391,-23 -625,-168 -10,-81 -20,-163 -30,-244 503,243 1217,320 1128,-457 71,-20 173,-25 244,-46 -24,541 -126,591 -457,823 167,1125 -86,2164 -1098,3248 -51,142 15,361 46,503 -366,-408 -803,-458 -1250,-457z"/>
  <path class="fil5 str2" d="M25428 19597c-33,-463 -85,-863 -99,-1327 -32,-1057 -834,-1287 -877,-228 -23,554 0,1079 0,1601 325,20 635,56 976,-46z"/>
  <path class="fil5 str2" d="M24468 19643c-66,-562 -141,-1042 -101,-1607 69,-977 -857,-2007 -919,-192 -19,557 -6,1040 60,1585 285,94 635,160 961,213z"/>
  <path class="fil5 str2" d="M23507 19521l-134 -2074c-93,-1551 -715,-1371 -768,-91 -25,605 25,935 -29,1540 290,198 600,590 930,625z"/>
  <path class="fil5 str2" d="M12864 20589c26,-569 -20,-920 -76,-1449 -264,-1118 -590,-1260 -976,-427 0,691 0,1169 0,1860 351,30 701,66 1052,15z"/>
  <path class="fil5 str2" d="M10943 20284c5,-717 10,-1189 15,-1906 264,-1052 529,-945 793,320 5,681 10,1118 15,1799 -274,-32 -549,-57 -823,-213z"/>
  <path class="fil5 str2" d="M9982 18881c36,-600 163,-1200 198,-1799 -244,-1184 -508,-1393 -793,-625 -10,768 -20,1535 -31,2302 224,102 361,183 625,122z"/>
  <path class="fil5 str2" d="M21601 18682c51,-635 -16,-1165 -2,-1786 17,-756 765,-537 799,158 34,696 69,1049 103,1735 -334,12 -608,47 -900,-107z"/>
  <path class="fil6 str2" d="M21555 18713c-20,-468 -10,-1027 -31,-1494 46,-642 -400,-1588 -572,-534 -75,458 -66,712 -99,1174 168,213 457,671 701,854z"/>
  <path class="fil1 str3" d="M16005 10131c315,-1515 630,-3029 945,-4544 50,-356 141,-672 518,-701 152,0 305,0 457,0 274,0 427,163 457,488 -31,224 -61,447 -91,671 10,274 183,427 518,457 457,20 915,41 1372,61 686,41 1144,335 1098,1189 -142,752 -285,1504 -427,2257 -71,437 -264,681 -579,793 -203,-10 -437,10 -640,0 -356,20 -560,-112 -427,-579 132,-590 295,-1332 427,-1921 52,-703 -213,-743 -488,-793 -234,-30 -468,0 -701,-30 -346,50 -478,386 -579,762 -152,630 -305,1261 -457,1891 -71,346 -142,569 -396,671 -254,0 -508,0 -762,0 -285,-61 -366,-285 -244,-671z"/>
  <path class="fil1 str3" d="M10123 11886c314,-1612 628,-3223 942,-4835 -31,-315 254,-559 549,-549 956,0 1911,0 2867,0 610,31 1105,276 1349,761 202,402 263,680 232,1142 -49,739 -421,1351 -849,1788 -488,366 -915,569 -1403,610 -488,10 -976,20 -1464,31 -282,-23 -562,52 -628,274 -90,304 -150,607 -239,911 -37,125 -160,210 -322,279 -282,4 -564,8 -846,12 -300,4 -235,-177 -187,-422zm1999 -2767c78,-426 178,-902 254,-1275 112,-224 274,-387 549,-366 324,-7 590,4 873,112 552,211 700,805 469,1321 -295,468 -579,712 -1037,854 -226,48 -429,81 -625,61 -538,-54 -577,-198 -483,-707z"/>
  <path class="fil1 str3" d="M21010 11886c314,-1612 628,-3223 942,-4835 -31,-315 254,-559 549,-549 956,0 1911,0 2867,0 610,31 1105,276 1349,761 202,402 263,680 232,1142 -49,739 -421,1351 -849,1788 -488,366 -915,569 -1403,610 -488,10 -976,20 -1464,31 -282,-23 -562,52 -628,274 -90,304 -149,607 -239,911 -37,125 -160,210 -322,279 -282,4 -564,8 -846,12 -300,4 -235,-177 -187,-422zm1999 -2767c78,-426 178,-902 254,-1275 112,-224 274,-387 549,-366 324,-7 590,4 873,112 552,211 700,805 469,1321 -295,468 -579,712 -1037,854 -226,48 -429,81 -625,61 -538,-54 -577,-198 -483,-707z"/>
  <path class="fil7" d="M2556 19219c-160,-149 -275,-317 -367,-482 -180,-324 -193,-531 -214,-898 -315,-5412 -39,-10142 1687,-14010 212,-476 249,-617 687,-833 1046,-515 2645,-587 4215,-490 41,-122 132,-244 91,-366 -1261,-126 -2582,19 -3843,305 -855,137 -1689,287 -1891,1647 -1725,4562 -1598,8885 -1420,13130 15,351 33,567 138,905 333,1070 660,1036 916,1091z"/>
  <path class="fil7" d="M9174 18548c0,-1128 -91,-2257 -91,-3385 -158,-711 -102,-1322 -419,-1889 -322,-575 -564,-869 -862,-1252 895,1393 1179,3395 854,6008 183,173 335,346 518,518z"/>
  <path class="fil8 str2" d="M8427 18027c46,-859 -31,-1535 15,-2394 310,47 646,192 793,686 -10,844 -20,1504 -31,2348 -280,-107 -498,-290 -778,-640z"/>
  <path class="fil7" d="M10882 20134c-244,-91 -447,-264 -610,-518 -41,-2013 -81,-4025 -122,-6038 102,102 203,203 305,305 71,427 102,854 91,1281 31,81 61,163 91,244 -40,1576 115,3151 244,4727z"/>
  <path class="fil8 str2" d="M10135 19796c5,-681 10,-1362 15,-2043 326,-582 631,-905 793,595 -5,712 -10,1423 -15,2135 -325,-107 -590,-335 -793,-686z"/>
  <path class="fil1 str1" d="M8762 13302c20,-102 -25,-203 -46,-305 51,10 102,20 152,30 264,214 528,427 793,640 122,-61 203,-142 244,-244 91,0 208,41 259,122 10,508 -25,1017 -15,1525 91,91 142,183 152,274 325,-3 651,53 976,91 20,81 41,132 61,213 -397,-31 -783,-51 -1098,0 0,71 0,158 0,229 203,-31 488,10 854,61 10,71 20,97 31,168 -305,-31 -610,-36 -915,15 37,1260 51,2506 0,3766 -102,-234 -295,-468 -396,-701 222,-1606 181,-3243 76,-4849 -258,-437 -694,-762 -1128,-1037z"/>
  <path class="fil7" d="M9509 2202c776,-239 766,-55 1595,-549 896,-534 2042,-839 3163,-915 -386,-203 -915,-244 -1464,-122 -1555,457 -2552,966 -3294,1586z"/>
  <path class="fil7" d="M15609 1531c2704,-773 5408,-651 8112,366 -2175,-972 -4604,-1369 -8081,-549 0,122 -30,61 -30,183z"/>
 </g>
</svg>
